<?xml version="1.0" encoding="UTF-8" standalone="no"?>
<svg width="400px" height="400px" viewBox="0 0 400 400" version="1.1" xmlns="http://www.w3.org/2000/svg" xmlns:xlink="http://www.w3.org/1999/xlink">
    <!-- Generator: Sketch 42 (36781) - http://www.bohemiancoding.com/sketch -->
    <title>icon</title>
    <desc>Created with Sketch.</desc>
    <defs></defs>
    <g id="Page-1" stroke="none" stroke-width="1" fill="none" fill-rule="evenodd">
        <g id="icon" stroke="#157DBE">
            <g id="Group" transform="translate(19.000000, 16.000000)">
                <path d="M0.016280012,179.77626 C0.00548485719,179.91969 0,180.063159 0,180.206471 L0,277.157029 C0,277.886714 0.143259428,278.554792 0.406506518,279.145853 C6.88055101,332.935609 89.3903543,367.782716 154.833631,367.782716 C238.912455,367.782716 251.448834,302.052054 272.980376,279.429446 C294.87293,256.427533 363.567427,240.264763 362.694676,183.206378 C362.700149,183.088339 362.702917,182.978137 362.702917,182.876333 L362.702917,95.5155001 C362.702917,95.3715876 362.697344,95.2300716 362.686378,95.0910701 C361.479312,150.058164 294.538454,166.07689 272.980376,188.727379 C251.448834,211.349986 238.912455,277.080649 154.833631,277.080649 C86.6733398,277.080649 0,239.279976 0,181.647388 C5.20216397e-17,181.017993 0.00544983805,180.394311 0.016280012,179.77626 Z" id="Combined-Shape" stroke-width="30" fill="#C3DBF3"></path>
                <path d="M203.576307,0.307395464 C139.0444,5.09244576 133.096537,53.9754323 93.631777,83.4529933 C54.1670174,112.930554 5.18632466e-15,118.899498 0,181.647388 C0,239.279976 86.6733398,277.080649 154.833631,277.080649 C238.912455,277.080649 251.448834,211.349986 272.980376,188.727379 C295.567293,164.995917 367.972059,148.54431 362.397974,86.9502275 C356.82389,25.3561446 252.676531,-3.33339333 203.576307,0.307395464 Z" id="Path" stroke-width="30"></path>
                <ellipse id="Oval" stroke-width="14" cx="132.99569" cy="334.659351" rx="21.9051724" ry="21.8936024"></ellipse>
                <ellipse id="Oval-Copy-3" stroke-width="14" cx="194.799569" cy="313.547663" rx="10.1702586" ry="10.1648868"></ellipse>
                <path d="M9.89951601,264.678013 C15.3668677,268.348646 19.799032,265.373008 19.799032,258.031738 C19.799032,250.690469 15.3668677,241.763557 9.89951601,238.092924 C4.43216429,234.422291 0,237.397929 0,244.739199 C0,252.080468 4.43216429,261.007379 9.89951601,264.678013 Z" id="Oval-Copy-2" stroke-width="14"></path>
                <path d="M341.015269,222.169472 C347.97229,217.792652 353.612069,207.593113 353.612069,199.388165 C353.612069,191.183217 347.97229,188.079906 341.015269,192.456726 C334.058249,196.833546 328.418469,207.033085 328.418469,215.238033 C328.418469,223.442981 334.058249,226.546292 341.015269,222.169472 Z" id="Oval-Copy" stroke-width="14"></path>
            </g>
        </g>
    </g>
</svg>